<?xml version="1.0" encoding="UTF-8" standalone="no"?>
<!-- Created with Inkscape (http://www.inkscape.org/) -->

<svg
   width="210mm"
   height="297mm"
   viewBox="0 0 210 297"
   version="1.1"
   id="svg1"
   xml:space="preserve"
   inkscape:version="1.4 (e7c3feb, 2024-10-09)"
   sodipodi:docname="bracket_stepper.svg"
   xmlns:inkscape="http://www.inkscape.org/namespaces/inkscape"
   xmlns:sodipodi="http://sodipodi.sourceforge.net/DTD/sodipodi-0.dtd"
   xmlns="http://www.w3.org/2000/svg"
   xmlns:svg="http://www.w3.org/2000/svg"><sodipodi:namedview
     id="namedview1"
     pagecolor="#ffffff"
     bordercolor="#000000"
     borderopacity="0.25"
     inkscape:showpageshadow="2"
     inkscape:pageopacity="0.0"
     inkscape:pagecheckerboard="0"
     inkscape:deskcolor="#d1d1d1"
     inkscape:document-units="mm"
     inkscape:zoom="0.70710678"
     inkscape:cx="-6.363961"
     inkscape:cy="949.64441"
     inkscape:window-width="1850"
     inkscape:window-height="1016"
     inkscape:window-x="70"
     inkscape:window-y="27"
     inkscape:window-maximized="1"
     inkscape:current-layer="g1" /><defs
     id="defs1"><marker
       id="DistanceX"
       orient="auto"
       refX="0.0"
       refY="0.0"
       style="overflow:visible"><path
         d="M 3,-3 L -3,3 M 0,-5 L  0,5"
         style="stroke:#000000; stroke-width:0.5"
         id="path1" /></marker><pattern
       id="Hatch"
       patternUnits="userSpaceOnUse"
       width="8"
       height="8"
       x="0"
       y="0"><path
         d="M8 4 l-4,4"
         stroke="#000000"
         stroke-width="0.25"
         linecap="square"
         id="path2" /><path
         d="M6 2 l-4,4"
         stroke="#000000"
         stroke-width="0.25"
         linecap="square"
         id="path3" /><path
         d="M4 0 l-4,4"
         stroke="#000000"
         stroke-width="0.25"
         linecap="square"
         id="path4" /></pattern><symbol
       id="*Model_Space" /><symbol
       id="*Paper_Space" /><symbol
       id="*Paper_Space0" /><marker
       id="DistanceX-3"
       orient="auto"
       refX="0.0"
       refY="0.0"
       style="overflow:visible"><path
         d="M 3,-3 L -3,3 M 0,-5 L  0,5"
         style="stroke:#000000; stroke-width:0.5"
         id="path1-6" /></marker><pattern
       id="Hatch-7"
       patternUnits="userSpaceOnUse"
       width="8"
       height="8"
       x="0"
       y="0"><path
         d="M8 4 l-4,4"
         stroke="#000000"
         stroke-width="0.25"
         linecap="square"
         id="path2-5" /><path
         d="M6 2 l-4,4"
         stroke="#000000"
         stroke-width="0.25"
         linecap="square"
         id="path3-3" /><path
         d="M4 0 l-4,4"
         stroke="#000000"
         stroke-width="0.25"
         linecap="square"
         id="path4-5" /></pattern></defs><g
     inkscape:label="Layer 1"
     inkscape:groupmode="layer"
     id="layer1"><g
       id="g1"
       transform="matrix(0.26458333,0,0,0.26458333,67.682544,-57.244322)"><g
         inkscape:label="0"
         id="g4" /><g
         inkscape:label="0"
         id="g18"
         transform="translate(-795.69357,557.08447)"><path
           id="path10"
           style="fill:#000000;fill-opacity:0.402098;stroke:none"
           d="m 988.64424,652.01726 -0.0332,-1.05274 -0.10742,-1.39648 -0.16992,-1.38477 -0.23828,-1.36914 -0.30469,-1.35351 -0.375,-1.33594 -0.42773,-1.3125 -0.49805,-1.29102 -0.5625,-1.26367 -0.62109,-1.23633 -0.67969,-1.20508 -0.74023,-1.17382 -0.80665,-1.13672 -0.85351,-1.10156 -0.91406,-1.06055 -0.71875,-0.76953 -0.25196,-0.24805 -0.24609,-0.24805 -0.77148,-0.72265 -1.0625,-0.91211 -1.09571,-0.85742 -1.13672,-0.80079 -1.17968,-0.74023 -1.20313,-0.68164 -1.23437,-0.62305 -1.26758,-0.55859 -1.28516,-0.49805 -1.31445,-0.43554 -1.33789,-0.36915 -1.35352,-0.30664 -1.36719,-0.23828 -1.38476,-0.17187 -1.39844,-0.10352 -1.05273,-0.0352 h -0.35157 -478.29299 -0.4687 l -1.4082,0.0469 -1.8633,0.13867 -1.8496,0.22852 -1.8282,0.32031 -1.8086,0.40625 -1.7812,0.49609 -1.7539,0.58008 -1.7227,0.66407 -1.6894,0.74804 -1.6504,0.83008 -1.6094,0.91016 -1.5664,0.99023 -1.5195,1.06836 -1.46879,1.14453 -1.416,1.21875 -1.0293,0.96289 -0.332,0.33203 -0.3301,0.33203 -0.9629,1.02735 -1.2207,1.41797 -1.1445,1.46875 -1.0684,1.51953 -0.9902,1.56641 -0.9102,1.60937 -0.83,1.65039 -0.7481,1.6875 -0.6641,1.72266 -0.58,1.7539 -0.4942,1.78321 -0.4082,1.80664 -0.3183,1.83008 -0.2305,1.84765 -0.1387,1.86524 -0.0469,1.4082 v 0.46875 256.87304 0.48243 l 0.0977,1.44922 0.2871,1.87695 0.4649,1.81055 0.6367,1.73632 0.7949,1.65235 0.9473,1.55664 1.0879,1.45513 1.2187,1.3417 1.3418,1.2208 1.4551,1.0878 1.5586,0.9454 1.6523,0.7968 1.7363,0.6348 1.8106,0.4668 1.87689,0.2851 1.4473,0.098 h 0.4844 497.24609 0.35157 l 1.05273,-0.035 1.39844,-0.1035 1.38476,-0.1718 1.36719,-0.2383 1.35352,-0.3047 1.33789,-0.3711 1.31445,-0.4356 1.28516,-0.498 1.26758,-0.5586 1.23437,-0.6211 1.20313,-0.6836 1.17968,-0.7402 1.13672,-0.8008 1.09571,-0.8555 1.0625,-0.91403 0.77148,-0.72071 0.24609,-0.24804 0.25196,-0.25 0.71875,-0.76953 0.91406,-1.06055 0.85351,-1.09961 0.80665,-1.13867 0.74023,-1.17383 0.67969,-1.20508 0.62109,-1.23633 0.5625,-1.26367 0.49805,-1.28906 0.42773,-1.31445 0.375,-1.33399 0.30469,-1.35351 0.23828,-1.3711 0.16992,-1.38281 0.10742,-1.39648 0.0332,-1.05469 v -0.35204 -256.92969 z m -22.64063,128.34179 v 0.87891 0.8789 l -0.0449,2.64063 -0.12891,3.50781 -0.21875,3.49805 -0.30273,3.48242 -0.38477,3.46875 -0.47265,3.45313 -0.55469,3.43359 -0.63867,3.41601 -0.72266,3.39454 -0.80468,3.37304 -0.88868,3.34961 -0.96289,3.32422 -1.04687,3.29688 -1.12696,3.26953 -1.20507,3.24218 -1.28516,3.20899 -1.36133,3.17773 -1.43945,3.14258 -1.51563,3.10938 -1.59179,3.07226 -1.66602,3.03321 -1.74219,2.99414 -1.81836,2.95507 -1.89062,2.91016 -1.96094,2.86719 -2.03711,2.82226 -2.10547,2.77539 -2.18164,2.72657 -2.24804,2.67578 -2.32032,2.62695 -2.38476,2.57227 -1.83789,1.89843 -0.62305,0.62305 -0.61914,0.6211 -1.89844,1.83593 -2.57422,2.38867 -2.625,2.31836 -2.67773,2.25 -2.72852,2.17969 -2.77343,2.10547 -2.82422,2.03711 -2.86328,1.96289 -2.91016,1.88867 -2.95703,1.81641 -2.99219,1.74219 -3.03516,1.66797 -3.07226,1.59179 -3.10742,1.51563 -3.14453,1.43945 -3.17969,1.36133 -3.20703,1.2832 -3.24024,1.20703 -3.26953,1.125 -3.29883,1.04688 -3.32226,0.96679 -3.35352,0.88477 -3.37109,0.80469 -3.39258,0.72265 -3.41797,0.63868 -3.43555,0.55664 -3.45117,0.4707 -3.46875,0.38867 -3.48437,0.30274 -3.4961,0.21679 -3.50781,0.12891 -2.63867,0.0449 h -0.88086 -0.87891 l -2.64062,-0.0449 -3.50781,-0.12891 -3.49805,-0.21679 -3.48438,-0.30274 -3.46679,-0.38867 -3.45313,-0.4707 -3.43359,-0.55664 -3.41602,-0.63868 -3.39648,-0.72265 -3.3711,-0.80469 -3.34961,-0.88477 -3.32421,-0.96679 -3.29688,-1.04688 -3.27148,-1.125 -3.24024,-1.20703 -3.20898,-1.2832 -3.17774,-1.36133 -3.14453,-1.43945 -3.10742,-1.51563 -3.07227,-1.59179 -3.03515,-1.66797 -2.99414,-1.74219 -2.95313,-1.81641 -2.91015,-1.88867 -2.86719,-1.96289 -2.82227,-2.03711 -2.77539,-2.10547 -2.72656,-2.17969 -2.67774,-2.25 -2.625,-2.31836 -2.57421,-2.38867 -1.89649,-1.83593 -0.62305,-0.6211 -0.62109,-0.62305 -1.83594,-1.89843 -2.38867,-2.57227 -2.32031,-2.62695 -2.24805,-2.67578 -2.17969,-2.72657 -2.10742,-2.77539 -2.03515,-2.82226 -1.96289,-2.86719 -1.89063,-2.91016 -1.81641,-2.95507 -1.74218,-2.99414 -1.66602,-3.03321 -1.5918,-3.07226 -1.51562,-3.10938 -1.43945,-3.14258 -1.36133,-3.17773 -1.28516,-3.20899 -1.20508,-3.24218 -1.12695,-3.26953 -1.04492,-3.29688 -0.9668,-3.32422 -0.88672,-3.34961 -0.80273,-3.37304 -0.72266,-3.39454 -0.63867,-3.41601 -0.55664,-3.43359 -0.47266,-3.45313 -0.38672,-3.46875 -0.30273,-3.48242 -0.2168,-3.49805 -0.13086,-3.50781 -0.043,-2.64063 v -0.8789 -0.87891 l 0.043,-2.64062 0.13086,-3.50977 0.2168,-3.49609 0.30273,-3.48438 0.38672,-3.4668 0.47266,-3.45312 0.55664,-3.43555 0.63867,-3.41601 0.72266,-3.39453 0.80273,-3.37305 0.88672,-3.34766 0.9668,-3.32422 1.04492,-3.29882 1.12695,-3.26954 1.20508,-3.24023 1.28516,-3.20898 1.36133,-3.17773 1.43945,-3.14454 1.51562,-3.10937 1.5918,-3.07031 1.66602,-3.03516 1.74218,-2.99414 1.81641,-2.95313 1.89063,-2.9121 1.96289,-2.86719 2.03515,-2.82031 2.10742,-2.7754 2.17969,-2.72656 2.24805,-2.67773 2.32031,-2.625 2.38867,-2.57422 1.83594,-1.89649 0.62109,-0.62304 0.62305,-0.6211 1.89649,-1.83593 2.57421,-2.38868 2.625,-2.32031 2.67774,-2.24805 2.72656,-2.17968 2.77539,-2.10742 2.82227,-2.03516 2.86719,-1.96289 2.91015,-1.89063 2.95313,-1.8164 2.99414,-1.74219 3.03515,-1.66602 3.07227,-1.59375 3.10742,-1.51562 3.14453,-1.4375 3.17774,-1.36328 3.20898,-1.28321 3.24024,-1.20507 3.27148,-1.12696 3.29688,-1.04687 3.32421,-0.96485 3.34961,-0.88671 3.3711,-0.80469 3.39648,-0.7207 3.41602,-0.63868 3.43359,-0.55664 3.45313,-0.47265 3.46679,-0.38672 3.48438,-0.30274 3.49805,-0.21679 3.50781,-0.13086 2.64062,-0.043 h 0.87891 0.88086 l 2.63867,0.043 3.50781,0.13086 3.4961,0.21679 3.48437,0.30274 3.46875,0.38672 3.45117,0.47265 3.43555,0.55664 3.41797,0.63868 3.39258,0.7207 3.37109,0.80469 3.35352,0.88671 3.32226,0.96485 3.29883,1.04687 3.26953,1.12696 3.24024,1.20507 3.20703,1.28321 3.17969,1.36328 3.14453,1.4375 3.10742,1.51562 3.07226,1.59375 3.03516,1.66602 2.99219,1.74219 2.95703,1.8164 2.91016,1.89063 2.86328,1.96289 2.82422,2.03516 2.77343,2.10742 2.72852,2.17968 2.67773,2.24805 2.625,2.32031 2.57422,2.38868 1.89844,1.83593 0.61914,0.6211 0.62305,0.62304 1.83789,1.89649 2.38476,2.57422 2.32032,2.625 2.24804,2.67773 2.18164,2.72656 2.10547,2.7754 2.03711,2.82031 1.96094,2.86719 1.89062,2.9121 1.81836,2.95313 1.74219,2.99414 1.66602,3.03516 1.59179,3.07031 1.51563,3.10937 1.43945,3.14454 1.36133,3.17773 1.28516,3.20898 1.20507,3.24023 1.12696,3.26954 1.04687,3.29882 0.96289,3.32422 0.88868,3.34766 0.80468,3.37305 0.72266,3.39453 0.63867,3.41601 0.55469,3.43555 0.47265,3.45312 0.38477,3.4668 0.30273,3.48438 0.21875,3.49609 0.12891,3.50977 z m -0.94336,-130.88671 v 0.23828 0.23632 l -0.0508,0.70899 -0.13867,0.91992 -0.22656,0.88672 -0.31446,0.85156 -0.38867,0.8086 -0.46484,0.76367 -0.5332,0.71289 -0.59766,0.6582 -0.6582,0.59766 -0.70899,0.5332 -0.76367,0.46289 -0.8125,0.39063 -0.85156,0.31054 -0.88281,0.22852 -0.92383,0.14062 -0.70899,0.0488 h -0.23437 -0.23828 l -0.71094,-0.0488 -0.91797,-0.14062 -0.88867,-0.22852 -0.85156,-0.31054 -0.8086,-0.39063 -0.76367,-0.46289 -0.71289,-0.5332 -0.6582,-0.59766 -0.59766,-0.6582 -0.5332,-0.71289 -0.46485,-0.76367 -0.38867,-0.8086 -0.31055,-0.85156 -0.23046,-0.88672 -0.13868,-0.91992 -0.0449,-0.70899 v -0.23632 -0.23828 l 0.0449,-0.70899 0.13868,-0.91992 0.23046,-0.88672 0.31055,-0.85156 0.38867,-0.8086 0.46485,-0.76367 0.5332,-0.71289 0.59766,-0.6582 0.6582,-0.59766 0.71289,-0.5332 0.76367,-0.46289 0.8086,-0.39063 0.85156,-0.31054 0.88867,-0.22852 0.91797,-0.14062 0.71094,-0.0469 h 0.23828 0.23437 l 0.70899,0.0469 0.92383,0.14062 0.88281,0.22852 0.85156,0.31054 0.8125,0.39063 0.76367,0.46289 0.70899,0.5332 0.6582,0.59766 0.59766,0.6582 0.5332,0.71289 0.46484,0.76367 0.38867,0.8086 0.31446,0.85156 0.22656,0.88672 0.13867,0.91992 z m 0,263.05663 v 0.23633 0.23633 l -0.0508,0.71094 -0.13867,0.91797 -0.22656,0.88867 -0.31446,0.84961 -0.38867,0.81055 -0.46484,0.76367 -0.5332,0.71289 -0.59766,0.65625 -0.6582,0.59765 -0.70899,0.53321 -0.76367,0.46484 -0.8125,0.38867 -0.85156,0.3125 -0.88281,0.22852 -0.92383,0.14062 -0.70899,0.0469 h -0.23437 -0.23828 l -0.71094,-0.0469 -0.91797,-0.14062 -0.88867,-0.22852 -0.85156,-0.3125 -0.8086,-0.38867 -0.76367,-0.46484 -0.71289,-0.53321 -0.6582,-0.59765 -0.59766,-0.65625 -0.5332,-0.71289 -0.46485,-0.76367 -0.38867,-0.81055 -0.31055,-0.84961 -0.23046,-0.88867 -0.13868,-0.91797 -0.0449,-0.71094 v -0.23633 -0.23633 l 0.0449,-0.71093 0.13868,-0.91797 0.23046,-0.88867 0.31055,-0.85157 0.38867,-0.80859 0.46485,-0.76367 0.5332,-0.71289 0.59766,-0.65821 0.6582,-0.5957 0.71289,-0.5332 0.76367,-0.46485 0.8086,-0.39062 0.85156,-0.31055 0.88867,-0.22851 0.91797,-0.14063 0.71094,-0.0469 h 0.23828 0.23437 l 0.70899,0.0469 0.92383,0.14063 0.88281,0.22851 0.85156,0.31055 0.8125,0.39062 0.76367,0.46485 0.70899,0.5332 0.6582,0.5957 0.59766,0.65821 0.5332,0.71289 0.46484,0.76367 0.38867,0.80859 0.31446,0.85157 0.22656,0.88867 0.13867,0.91797 z M 702.00361,649.47234 v 0.23828 0.23632 l -0.0488,0.70899 -0.14062,0.91992 -0.22657,0.88672 -0.3125,0.85156 -0.39062,0.8086 -0.46289,0.76367 -0.5332,0.71289 -0.59766,0.6582 -0.6582,0.59766 -0.71289,0.5332 -0.76368,0.46289 -0.80859,0.39063 -0.84961,0.31054 -0.88867,0.22852 -0.91797,0.14062 -0.71094,0.0488 h -0.23633 -0.23828 l -0.70898,-0.0488 -0.91992,-0.14062 -0.88672,-0.22852 -0.85157,-0.31054 -0.80859,-0.39063 -0.76367,-0.46289 -0.71289,-0.5332 -0.6582,-0.59766 -0.59766,-0.6582 -0.5332,-0.71289 -0.46289,-0.76367 -0.39063,-0.8086 -0.31055,-0.85156 -0.22851,-0.88672 -0.14063,-0.91992 -0.0469,-0.70899 v -0.23632 -0.23828 l 0.0469,-0.70899 0.14063,-0.91992 0.22851,-0.88672 0.31055,-0.85156 0.39063,-0.8086 0.46289,-0.76367 0.5332,-0.71289 0.59766,-0.6582 0.6582,-0.59766 0.71289,-0.5332 0.76367,-0.46289 0.80859,-0.39063 0.85157,-0.31054 0.88672,-0.22852 0.91992,-0.14062 0.70898,-0.0469 h 0.23828 0.23633 l 0.71094,0.0469 0.91797,0.14062 0.88867,0.22852 0.84961,0.31054 0.80859,0.39063 0.76368,0.46289 0.71289,0.5332 0.6582,0.59766 0.59766,0.6582 0.5332,0.71289 0.46289,0.76367 0.39062,0.8086 0.3125,0.85156 0.22657,0.88672 0.14062,0.91992 z m 0,263.05663 v 0.23633 0.23633 l -0.0488,0.71094 -0.14062,0.91797 -0.22657,0.88867 -0.3125,0.84961 -0.39062,0.81055 -0.46289,0.76367 -0.5332,0.71289 -0.59766,0.65625 -0.6582,0.59765 -0.71289,0.53321 -0.76368,0.46484 -0.80859,0.38867 -0.84961,0.3125 -0.88867,0.22852 -0.91797,0.14062 -0.71094,0.0469 h -0.23633 -0.23828 l -0.70898,-0.0469 -0.91992,-0.14062 -0.88672,-0.22852 -0.85157,-0.3125 -0.80859,-0.38867 -0.76367,-0.46484 -0.71289,-0.53321 -0.6582,-0.59765 -0.59766,-0.65625 -0.5332,-0.71289 -0.46289,-0.76367 -0.39063,-0.81055 -0.31055,-0.84961 -0.22851,-0.88867 -0.14063,-0.91797 -0.0469,-0.71094 v -0.23633 -0.23633 l 0.0469,-0.71093 0.14063,-0.91797 0.22851,-0.88867 0.31055,-0.85157 0.39063,-0.80859 0.46289,-0.76367 0.5332,-0.71289 0.59766,-0.65821 0.6582,-0.5957 0.71289,-0.5332 0.76367,-0.46485 0.80859,-0.39062 0.85157,-0.31055 0.88672,-0.22851 0.91992,-0.14063 0.70898,-0.0469 h 0.23828 0.23633 l 0.71094,0.0469 0.91797,0.14063 0.88867,0.22851 0.84961,0.31055 0.80859,0.39062 0.76368,0.46485 0.71289,0.5332 0.6582,0.5957 0.59766,0.65821 0.5332,0.71289 0.46289,0.76367 0.39062,0.80859 0.3125,0.85157 0.22657,0.88867 0.14062,0.91797 z M 558.57194,781.15983 v 0.47071 0.4707 l -0.0957,1.41211 -0.2773,1.82812 -0.4551,1.76563 -0.6191,1.6914 -0.7754,1.61133 -0.9219,1.51758 -1.0606,1.41797 -1.1894,1.30859 -1.3086,1.1875 -1.416,1.06055 -1.5196,0.92383 -1.6093,0.77539 -1.6914,0.61914 -1.7657,0.45312 -1.83,0.2793 -1.4121,0.0957 h -0.4708 -0.4707 l -1.4121,-0.0957 -1.8281,-0.2793 -1.7656,-0.45312 -1.6914,-0.61914 -1.6113,-0.77539 -1.5176,-0.92383 -1.418,-1.06055 -1.3086,-1.1875 -1.1875,-1.30859 -1.0605,-1.41797 -0.9239,-1.51758 -0.7754,-1.61133 -0.6191,-1.6914 -0.4551,-1.76563 -0.2773,-1.82812 -0.0957,-1.41211 v -0.4707 -0.47071 l 0.0957,-1.41211 0.2773,-1.83008 0.4551,-1.76562 0.6191,-1.69141 0.7754,-1.60937 0.9239,-1.51953 1.0605,-1.41797 1.1875,-1.3086 1.3086,-1.1875 1.418,-1.06054 1.5176,-0.92188 1.6113,-0.77539 1.6914,-0.61914 1.7656,-0.45508 1.8281,-0.27929 1.4121,-0.0937 h 0.4707 0.4708 l 1.4121,0.0937 1.83,0.27929 1.7657,0.45508 1.6914,0.61914 1.6093,0.77539 1.5196,0.92188 1.416,1.06054 1.3086,1.1875 1.1894,1.3086 1.0606,1.41797 0.9219,1.51953 0.7754,1.60937 0.6191,1.69141 0.4551,1.76562 0.2773,1.83008 z m -0.0137,96.26172 v 0.47071 0.4707 l -0.0957,1.41015 -0.2793,1.82813 -0.4531,1.76367 -0.6191,1.69141 -0.7735,1.60742 -0.9238,1.51758 -1.0586,1.41797 -1.1875,1.30664 -1.3066,1.1875 -1.418,1.06054 -1.5176,0.92188 -1.6074,0.77344 -1.6914,0.61914 -1.7637,0.45312 -1.8281,0.2793 -1.4101,0.0957 h -0.4708 -0.4707 l -1.4121,-0.0957 -1.8261,-0.2793 -1.7637,-0.45312 -1.6914,-0.61914 -1.6074,-0.77344 -1.5176,-0.92188 -1.418,-1.06054 -1.3066,-1.1875 -1.1875,-1.30664 -1.0606,-1.41797 -0.9218,-1.51758 -0.7735,-1.60742 -0.6191,-1.69141 -0.4531,-1.76367 -0.2793,-1.82813 -0.0957,-1.41015 v -0.4707 -0.47071 l 0.0957,-1.41015 0.2793,-1.82813 0.4531,-1.76367 0.6191,-1.69141 0.7735,-1.60742 0.9218,-1.51758 1.0606,-1.41601 1.1875,-1.3086 1.3066,-1.1875 1.418,-1.05859 1.5176,-0.92188 1.6074,-0.77539 1.6914,-0.61914 1.7637,-0.45312 1.8261,-0.2793 1.4121,-0.0957 h 0.4707 0.4708 l 1.4101,0.0957 1.8281,0.2793 1.7637,0.45312 1.6914,0.61914 1.6074,0.77539 1.5176,0.92188 1.418,1.05859 1.3066,1.1875 1.1875,1.3086 1.0586,1.41601 0.9238,1.51758 0.7735,1.60742 0.6191,1.69141 0.4531,1.76367 0.2793,1.82813 z m -0.2207,-192.375 v 0.46485 0.46484 l -0.0937,1.39453 -0.2754,1.80664 -0.4492,1.74219 -0.6113,1.66992 -0.7657,1.58985 -0.9101,1.5 -1.0469,1.39843 -1.1738,1.29102 -1.291,1.17383 -1.4004,1.04687 -1.4981,0.91211 -1.5898,0.76367 -1.6699,0.61329 -1.7442,0.44726 -1.8047,0.27539 -1.3945,0.0937 h -0.4649 -0.4648 l -1.3945,-0.0937 -1.8047,-0.27539 -1.7442,-0.44726 -1.6699,-0.61329 -1.5898,-0.76367 -1.4981,-0.91211 -1.4004,-1.04687 -1.291,-1.17383 -1.1738,-1.29102 -1.0469,-1.39843 -0.9101,-1.5 -0.7657,-1.58985 -0.6113,-1.66992 -0.4492,-1.74219 -0.2754,-1.80664 -0.0937,-1.39453 v -0.46484 -0.46485 l 0.0937,-1.39453 0.2754,-1.80468 0.4492,-1.74219 0.6113,-1.66992 0.7657,-1.58985 0.9101,-1.5 1.0469,-1.40039 1.1738,-1.29101 1.291,-1.17188 1.4004,-1.04687 1.4981,-0.91211 1.5898,-0.76563 1.6699,-0.61133 1.7442,-0.44726 1.8047,-0.27539 1.3945,-0.0937 h 0.4648 0.4649 l 1.3945,0.0937 1.8047,0.27539 1.7442,0.44726 1.6699,0.61133 1.5898,0.76563 1.4981,0.91211 1.4004,1.04687 1.291,1.17188 1.1738,1.29101 1.0469,1.40039 0.9101,1.5 0.7657,1.58985 0.6113,1.66992 0.4492,1.74219 0.2754,1.80468 z" /></g></g></g></svg>
