<?xml version="1.0" encoding="UTF-8" standalone="no"?>
<!-- Created with Inkscape (http://www.inkscape.org/) -->

<svg
   width="210mm"
   height="297mm"
   viewBox="0 0 210 297"
   version="1.1"
   id="svg1"
   xml:space="preserve"
   inkscape:version="1.4 (e7c3feb, 2024-10-09)"
   sodipodi:docname="bracket_stepper.svg"
   xmlns:inkscape="http://www.inkscape.org/namespaces/inkscape"
   xmlns:sodipodi="http://sodipodi.sourceforge.net/DTD/sodipodi-0.dtd"
   xmlns="http://www.w3.org/2000/svg"
   xmlns:svg="http://www.w3.org/2000/svg"><sodipodi:namedview
     id="namedview1"
     pagecolor="#ffffff"
     bordercolor="#000000"
     borderopacity="0.25"
     inkscape:showpageshadow="2"
     inkscape:pageopacity="0.0"
     inkscape:pagecheckerboard="0"
     inkscape:deskcolor="#d1d1d1"
     inkscape:document-units="mm"
     inkscape:zoom="4"
     inkscape:cx="80.125"
     inkscape:cy="1111.625"
     inkscape:window-width="1850"
     inkscape:window-height="1016"
     inkscape:window-x="70"
     inkscape:window-y="27"
     inkscape:window-maximized="1"
     inkscape:current-layer="g1" /><defs
     id="defs1"><marker
       id="DistanceX"
       orient="auto"
       refX="0.0"
       refY="0.0"
       style="overflow:visible"><path
         d="M 3,-3 L -3,3 M 0,-5 L  0,5"
         style="stroke:#000000; stroke-width:0.5"
         id="path1" /></marker><pattern
       id="Hatch"
       patternUnits="userSpaceOnUse"
       width="8"
       height="8"
       x="0"
       y="0"><path
         d="M8 4 l-4,4"
         stroke="#000000"
         stroke-width="0.25"
         linecap="square"
         id="path2" /><path
         d="M6 2 l-4,4"
         stroke="#000000"
         stroke-width="0.25"
         linecap="square"
         id="path3" /><path
         d="M4 0 l-4,4"
         stroke="#000000"
         stroke-width="0.25"
         linecap="square"
         id="path4" /></pattern><symbol
       id="*Model_Space" /><symbol
       id="*Paper_Space" /><symbol
       id="*Paper_Space0" /></defs><g
     inkscape:label="Layer 1"
     inkscape:groupmode="layer"
     id="layer1"><g
       id="g1"
       transform="matrix(0.26458333,0,0,0.26458333,67.682544,-57.244322)"><g
         inkscape:label="0"
         id="g4" /><path
         id="path27"
         style="fill:#949494;fill-opacity:1;stroke:none"
         d="m 192.97104,1203.5273 c -6e-5,-15.6551 -12.69119,-28.3462 -28.34625,-28.3461 h -291.92737 -186.36457 c -20.90499,-10e-5 -37.8517,16.9466 -37.85178,37.8512 v 324.1795 c 1e-5,25.0491 20.30585,45.355 45.35417,45.3572 h 134.18939 c 6.26213,0 11.33859,-5.0787 11.33859,-11.3393 v -9.7364 c 0,-31.3084 25.38228,-56.6907 56.69291,-56.6914 h 268.56866 c 15.6551,7e-4 28.34624,-22.6905 28.34625,-38.3483 z m -448.48988,57.32 c -10.03986,0 -18.17971,-8.1371 -18.18304,-18.177 0.003,-10.0399 8.14318,-18.177 18.18304,-18.177 10.03985,0 18.1797,8.1371 18.18303,18.177 -0.003,10.0399 -8.14318,18.177 -18.18303,18.177 z m 0,96.3589 c -10.17205,0 -18.41812,-8.246 -18.41812,-18.4181 0,-10.1721 8.24607,-18.4181 18.41812,-18.4181 10.17205,0 18.41812,8.246 18.41812,18.4181 0,10.1721 -8.24607,18.4181 -18.41812,18.4181 z m -4e-5,96.248 c -10.16406,0 -18.40366,-8.2396 -18.40366,-18.4037 0,-10.1641 8.2396,-18.4037 18.40366,-18.4037 10.16406,0 18.40366,8.2396 18.40366,18.4037 0,10.1641 -8.2396,18.4037 -18.40366,18.4037 z m 284.116516,26.6735 c -78.276578,0 -141.732286,-63.4556 -141.732286,-141.7322 0,-78.2766 63.455708,-141.7322 141.732286,-141.7322 78.276574,0 141.732284,63.4556 141.732284,141.7322 0,78.2766 -63.45571,141.7322 -141.732284,141.7322 z M -102.92992,1216.1278 c -5.11408,0 -9.25985,-4.1457 -9.25985,-9.2598 0,-5.1141 4.14577,-9.2598 9.25985,-9.2598 5.114067,0 9.259841,4.1457 9.259841,9.2598 0,5.1141 -4.145774,9.2598 -9.259841,9.2598 z m -152.58896,332.8514 c -10.12377,0 -18.33071,-8.2069 -18.33071,-18.3307 0,-10.1238 8.20694,-18.3307 18.33071,-18.3307 10.12377,0 18.33071,8.2069 18.33071,18.3307 0,10.1238 -8.20694,18.3307 -18.33071,18.3307 z m 152.58896,-69.7963 c -5.11408,0 -9.25985,-4.1457 -9.25985,-9.2598 0,-5.1141 4.14577,-9.2598 9.25985,-9.2598 5.114067,0 9.259841,4.1457 9.259841,9.2598 0,5.1141 -4.145774,9.2598 -9.259841,9.2598 z M 160.1252,1216.1278 c -5.11408,0 -9.25985,-4.1457 -9.25985,-9.2598 0,-5.1141 4.14577,-9.2598 9.25985,-9.2598 5.11407,0 9.25984,4.1457 9.25984,9.2598 0,5.1141 -4.14577,9.2598 -9.25984,9.2598 z m 0,263.0551 c -5.11408,0 -9.25985,-4.1457 -9.25985,-9.2598 0,-5.1141 4.14577,-9.2598 9.25985,-9.2598 5.11407,0 9.25984,4.1457 9.25984,9.2598 0,5.1141 -4.14577,9.2598 -9.25984,9.2598 z m -298.67818,33.258 c 0,-0.3333 -0.5,-0.3333 -0.5,0 0,0.3333 0.5,0.3333 0.5,0 z"
         sodipodi:nodetypes="ccccccccccccccscscssssssssssssssssssssssssssssssssssssssssssss" /></g></g></svg>
