<?xml version="1.0" encoding="UTF-8" standalone="no"?>
<!-- Created with Inkscape (http://www.inkscape.org/) -->

<svg
   width="210mm"
   height="297mm"
   viewBox="0 0 210 297"
   version="1.1"
   id="svg1"
   xml:space="preserve"
   sodipodi:docname="bracket_idler.svg"
   inkscape:version="1.4 (e7c3feb, 2024-10-09)"
   xmlns:inkscape="http://www.inkscape.org/namespaces/inkscape"
   xmlns:sodipodi="http://sodipodi.sourceforge.net/DTD/sodipodi-0.dtd"
   xmlns="http://www.w3.org/2000/svg"
   xmlns:svg="http://www.w3.org/2000/svg"><sodipodi:namedview
     id="namedview1"
     pagecolor="#ffffff"
     bordercolor="#000000"
     borderopacity="0.25"
     inkscape:showpageshadow="2"
     inkscape:pageopacity="0.0"
     inkscape:pagecheckerboard="0"
     inkscape:deskcolor="#d1d1d1"
     inkscape:document-units="mm"
     inkscape:zoom="2.889927"
     inkscape:cx="102.59775"
     inkscape:cy="1109.5436"
     inkscape:window-width="1850"
     inkscape:window-height="1016"
     inkscape:window-x="70"
     inkscape:window-y="27"
     inkscape:window-maximized="1"
     inkscape:current-layer="g1" /><defs
     id="defs1"><marker
       id="DistanceX"
       orient="auto"
       refX="0.0"
       refY="0.0"
       style="overflow:visible"><path
         d="M 3,-3 L -3,3 M 0,-5 L  0,5"
         style="stroke:#000000; stroke-width:0.5"
         id="path1" /></marker><pattern
       id="Hatch"
       patternUnits="userSpaceOnUse"
       width="8"
       height="8"
       x="0"
       y="0"><path
         d="M8 4 l-4,4"
         stroke="#000000"
         stroke-width="0.25"
         linecap="square"
         id="path2" /><path
         d="M6 2 l-4,4"
         stroke="#000000"
         stroke-width="0.25"
         linecap="square"
         id="path3" /><path
         d="M4 0 l-4,4"
         stroke="#000000"
         stroke-width="0.25"
         linecap="square"
         id="path4" /></pattern><symbol
       id="*Model_Space" /><symbol
       id="*Paper_Space" /><symbol
       id="*Paper_Space0" /></defs><g
     inkscape:label="Layer 1"
     inkscape:groupmode="layer"
     id="layer1"><g
       id="g1"
       transform="matrix(0.26458333,0,0,0.26458333,67.682544,-57.244322)"><g
         inkscape:label="0"
         id="g4"
         transform="translate(-1.9958175,-0.20015285)" /><path
         id="path61"
         style="fill:#8e8e8e;fill-opacity:1;stroke:none"
         d="m -231.55233,1227.2735 c 4.30071,0.8876 6.90767,5.2613 5.67621,9.4762 l -6.05536,20.7277 c -1.09832,3.757 -4.88609,6.0548 -8.73293,5.3193 -10.23334,-1.9968 -20.76435,-1.9381 -30.9691,0.1998 -3.82545,0.788 -7.62133,-1.4681 -8.75717,-5.2059 l -6.27593,-20.6421 c -1.28235,-4.219 1.30189,-8.6347 5.60716,-9.5823 16.28257,-3.7041 33.17935,-3.7923 49.50712,-0.2927 z m 27.15697,-92.197 c 4.19371,0.9841 6.67928,5.2906 5.47136,9.424 l -6.04368,20.6878 c -1.13136,3.8709 -5.10414,6.1723 -9.03444,5.2611 -28.04309,-6.9098 -57.36758,-6.7459 -85.32297,0.5105 -3.89724,0.9522 -7.85953,-1.306 -9.02642,-5.1423 l -6.26585,-20.6154 c -1.25988,-4.1425 1.21439,-8.4962 5.4202,-9.5348 34.32374,-9.0295 70.37513,-9.2196 104.8018,-0.5909 z M 28.3796,1357.2519 c -10.123771,0 -18.33071,-8.2069 -18.33071,-18.3307 0,-10.1238 8.206939,-18.3307 18.33071,-18.3307 10.123771,0 18.33071,8.2069 18.33071,18.3307 0,10.1238 -8.206939,18.3307 -18.33071,18.3307 z m -284.10709,0 c -10.12377,0 -18.33071,-8.2069 -18.33071,-18.3307 0,-10.1238 8.20694,-18.3307 18.33071,-18.3307 10.12377,0 18.33071,8.2069 18.33071,18.3307 0,10.1238 -8.20694,18.3307 -18.33071,18.3307 z m 69.45989,36.8445 c 5.21843,0 9.44881,-4.2338 9.44882,-9.4522 1e-5,-5.2184 4.23039,-9.4488 9.4488,-9.4481 H 59.4016 c 5.218532,-7e-4 9.44891,-4.2311 9.44891,-9.4495 v -56.6915 c 0,-5.2199 -4.230378,-9.4503 -9.44891,-9.4493 h -85.039185 c -83.495105,5e-4 -151.181195,-67.6856 -151.181205,-151.1806 v -47.2485 c 0,-5.217 -4.23038,-9.4474 -9.44881,-9.4479 h -132.28368 c -5.21821,5e-4 -9.44859,4.2309 -9.44841,9.4493 v 283.4674 c -1.8e-4,5.2156 4.2302,9.446 9.44841,9.4494 z"
         sodipodi:nodetypes="ccccccccccccccccccsssssssssscccccccccccccccc" /></g></g></svg>
